<svg width="250.000000" height="250.000000" viewBox="0 0 250 250" fill="none" xmlns="http://www.w3.org/2000/svg" xmlns:xlink="http://www.w3.org/1999/xlink">
	<desc>
			Created with Pixso.
	</desc>
	<defs>
		<filter id="filter_5_1735_dd" x="15.625000" y="16.709351" width="211.474609" height="219.964233" filterUnits="userSpaceOnUse" color-interpolation-filters="sRGB">
			<feFlood flood-opacity="0" result="BackgroundImageFix"/>
			<feBlend mode="normal" in="SourceGraphic" in2="BackgroundImageFix" result="shape"/>
			<feColorMatrix in="SourceAlpha" type="matrix" values="0 0 0 0 0 0 0 0 0 0 0 0 0 0 0 0 0 0 127 0" result="hardAlpha"/>
			<feOffset dx="0.2" dy="-0.2"/>
			<feGaussianBlur stdDeviation="0.375"/>
			<feComposite in2="hardAlpha" operator="arithmetic" k2="-1" k3="1"/>
			<feColorMatrix type="matrix" values="0 0 0 0 0.83922 0 0 0 0 0.45098 0 0 0 0 0.21176 0 0 0 1 0"/>
			<feBlend mode="normal" in2="shape" result="effect_innerShadow_1"/>
		</filter>
		<filter id="filter_5_1746_dd" x="36.683105" y="42.412598" width="168.758301" height="168.758545" filterUnits="userSpaceOnUse" color-interpolation-filters="sRGB">
			<feFlood flood-opacity="0" result="BackgroundImageFix"/>
			<feColorMatrix in="SourceAlpha" type="matrix" values="0 0 0 0 0 0 0 0 0 0 0 0 0 0 0 0 0 0 127 0" result="hardAlpha"/>
			<feOffset dx="-0.3" dy="0.3"/>
			<feGaussianBlur stdDeviation="0.15"/>
			<feComposite in2="hardAlpha" operator="out" k2="-1" k3="1"/>
			<feColorMatrix type="matrix" values="0 0 0 0 0.92157 0 0 0 0 0.47451 0 0 0 0 0.13333 0 0 0 1 0"/>
			<feBlend mode="normal" in2="BackgroundImageFix" result="effect_dropShadow_1"/>
			<feBlend mode="normal" in="SourceGraphic" in2="effect_dropShadow_1" result="shape"/>
		</filter>
		<clipPath id="clip5_1734">
			<rect id="sun" width="250.000000" height="250.000000" fill="white" fill-opacity="0"/>
		</clipPath>
		<linearGradient x1="186.547607" y1="53.646896" x2="66.625824" y2="206.650101" id="paint_linear_5_1736_0" gradientUnits="userSpaceOnUse">
			<stop stop-color="#FC8B23"/>
			<stop offset="1.000000" stop-color="#E67639"/>
		</linearGradient>
		<radialGradient gradientTransform="translate(141.553 26.8533) rotate(138.155) scale(29.5206 26.0463)" cx="0.000000" cy="0.000000" r="1.000000" id="paint_radial_5_1737_0" gradientUnits="userSpaceOnUse">
			<stop offset="0.300161" stop-color="#FFA13A"/>
			<stop offset="1.000000" stop-color="#FFA13A" stop-opacity="0.000000"/>
		</radialGradient>
		<radialGradient gradientTransform="translate(64.7471 17.534) rotate(67.8105) scale(46.9309 41.4076)" cx="0.000000" cy="0.000000" r="1.000000" id="paint_radial_5_1738_0" gradientUnits="userSpaceOnUse">
			<stop offset="0.300161" stop-color="#FF942A"/>
			<stop offset="1.000000" stop-color="#FF942A" stop-opacity="0.000000"/>
		</radialGradient>
		<radialGradient gradientTransform="translate(190.787 61.3175) rotate(-164.745) scale(18.7119 25.9091)" cx="0.000000" cy="0.000000" r="1.000000" id="paint_radial_5_1739_0" gradientUnits="userSpaceOnUse">
			<stop offset="0.300161" stop-color="#FFA13D"/>
			<stop offset="1.000000" stop-color="#FFA13D" stop-opacity="0.000000"/>
		</radialGradient>
		<radialGradient gradientTransform="translate(228.534 88.561) rotate(154.195) scale(33.1772 24.5038)" cx="0.000000" cy="0.000000" r="1.000000" id="paint_radial_5_1740_0" gradientUnits="userSpaceOnUse">
			<stop offset="0.300161" stop-color="#FFA13D"/>
			<stop offset="1.000000" stop-color="#FFA13D" stop-opacity="0.000000"/>
		</radialGradient>
		<radialGradient gradientTransform="translate(235.755 144.687) rotate(-173.379) scale(37.0085 20.8556)" cx="0.000000" cy="0.000000" r="1.000000" id="paint_radial_5_1741_0" gradientUnits="userSpaceOnUse">
			<stop offset="0.300161" stop-color="#FFA13D"/>
			<stop offset="1.000000" stop-color="#FFA13D" stop-opacity="0.000000"/>
		</radialGradient>
		<radialGradient gradientTransform="translate(202.604 187.686) rotate(-43.9639) scale(33.5697 32.3405)" cx="0.000000" cy="0.000000" r="1.000000" id="paint_radial_5_1742_0" gradientUnits="userSpaceOnUse">
			<stop stop-color="#E0762A"/>
			<stop offset="1.000000" stop-color="#E0762A" stop-opacity="0.000000"/>
		</radialGradient>
		<radialGradient gradientTransform="translate(47.0226 179.809) rotate(-127.747) scale(25.7362 24.7938)" cx="0.000000" cy="0.000000" r="1.000000" id="paint_radial_5_1743_0" gradientUnits="userSpaceOnUse">
			<stop stop-color="#E0762A"/>
			<stop offset="1.000000" stop-color="#E0762A" stop-opacity="0.000000"/>
		</radialGradient>
		<radialGradient gradientTransform="translate(11.9021 92.8273) rotate(25.2777) scale(26.135 31.5879)" cx="0.000000" cy="0.000000" r="1.000000" id="paint_radial_5_1744_0" gradientUnits="userSpaceOnUse">
			<stop stop-color="#F0851D"/>
			<stop offset="1.000000" stop-color="#F0851D" stop-opacity="0.000000"/>
		</radialGradient>
		<radialGradient gradientTransform="translate(167.907 224.959) rotate(-142.487) scale(30.4707 28.7464)" cx="0.000000" cy="0.000000" r="1.000000" id="paint_radial_5_1745_0" gradientUnits="userSpaceOnUse">
			<stop offset="0.336586" stop-color="#E3745B"/>
			<stop offset="1.000000" stop-color="#E3745B" stop-opacity="0.000000"/>
		</radialGradient>
		<radialGradient gradientTransform="translate(168.991 77.8681) rotate(117.739) scale(149.765 184.945)" cx="0.000000" cy="0.000000" r="1.000000" id="paint_radial_5_1747_0" gradientUnits="userSpaceOnUse">
			<stop offset="0.171780" stop-color="#FFD13D"/>
			<stop offset="1.000000" stop-color="#DCA21C"/>
			<stop offset="1.000000" stop-color="#D89A29"/>
		</radialGradient>
	</defs>
	<g clip-path="url(#clip5_1734)">
		<g filter="url(#filter_5_1735_dd)">
			<path id="path" d="M101.95 26.02C113.92 12.55 130.18 14.69 140.59 26.02L146.94 33.37C149.13 35.76 152.31 37 155.55 36.72L166.83 33.37C182.21 30.07 196.19 41.54 196.19 59.37L196.19 66.08C196.52 69.74 199.72 72.23 203.03 73.84L213.22 78.1C227.97 85.31 231.65 102.4 220.91 116.74L217.86 120.77C215.12 124.47 215.68 129.33 218.41 133.03L221.46 137.31C232.57 150.98 226.3 169.74 210.61 176.29L201.84 179.96C198.53 181.34 197.24 183.71 196.62 187.23L196.01 198.71C193.87 214.46 179.89 221.57 168.66 219.98L155.3 216.41C152.09 215.95 148.1 217.02 145.96 220.38L141.14 226.97C129.17 240.46 113.03 238.21 104.88 230.33L95.99 219.55C93.66 217.3 90.72 215.37 87.21 216.7L73.75 220.38C62.65 221.95 49.57 213.41 47.48 202.39L45.92 186.44C45.29 183.12 43.1 180.31 40.04 178.88L30.6 175.64C16.41 169.02 11.66 153.01 19.81 139.64L25.13 132.29C27.26 128.78 27.16 124.35 24.87 120.95L20.9 115.34C9.67 99.34 17.43 81.47 34.07 76.11L37.74 74.93C41.8 73.63 45.71 70.26 46.04 66.02L46.86 55.72C48.19 39 63.44 29.41 79.49 34.29L84.68 35.87C89.68 37.82 93.61 36.16 96.34 33.18L101.95 26.02Z" fill="url(#paint_linear_5_1736_0)" fill-opacity="1.000000" fill-rule="nonzero"/>
			<path id="path" d="M101.95 26.02C113.92 12.55 130.18 14.69 140.59 26.02L146.94 33.37C149.13 35.76 152.31 37 155.55 36.72L166.83 33.37C182.21 30.07 196.19 41.54 196.19 59.37L196.19 66.08C196.52 69.74 199.72 72.23 203.03 73.84L213.22 78.1C227.97 85.31 231.65 102.4 220.91 116.74L217.86 120.77C215.12 124.47 215.68 129.33 218.41 133.03L221.46 137.31C232.57 150.98 226.3 169.74 210.61 176.29L201.84 179.96C198.53 181.34 197.24 183.71 196.62 187.23L196.01 198.71C193.87 214.46 179.89 221.57 168.66 219.98L155.3 216.41C152.09 215.95 148.1 217.02 145.96 220.38L141.14 226.97C129.17 240.46 113.03 238.21 104.88 230.33L95.99 219.55C93.66 217.3 90.72 215.37 87.21 216.7L73.75 220.38C62.65 221.95 49.57 213.41 47.48 202.39L45.92 186.44C45.29 183.12 43.1 180.31 40.04 178.88L30.6 175.64C16.41 169.02 11.66 153.01 19.81 139.64L25.13 132.29C27.26 128.78 27.16 124.35 24.87 120.95L20.9 115.34C9.67 99.34 17.43 81.47 34.07 76.11L37.74 74.93C41.8 73.63 45.71 70.26 46.04 66.02L46.86 55.72C48.19 39 63.44 29.41 79.49 34.29L84.68 35.87C89.68 37.82 93.61 36.16 96.34 33.18L101.95 26.02Z" fill="url(#paint_radial_5_1737_0)" fill-opacity="1.000000" fill-rule="nonzero"/>
			<path id="path" d="M101.95 26.02C113.92 12.55 130.18 14.69 140.59 26.02L146.94 33.37C149.13 35.76 152.31 37 155.55 36.72L166.83 33.37C182.21 30.07 196.19 41.54 196.19 59.37L196.19 66.08C196.52 69.74 199.72 72.23 203.03 73.84L213.22 78.1C227.97 85.31 231.65 102.4 220.91 116.74L217.86 120.77C215.12 124.47 215.68 129.33 218.41 133.03L221.46 137.31C232.57 150.98 226.3 169.74 210.61 176.29L201.84 179.96C198.53 181.34 197.24 183.71 196.62 187.23L196.01 198.71C193.87 214.46 179.89 221.57 168.66 219.98L155.3 216.41C152.09 215.95 148.1 217.02 145.96 220.38L141.14 226.97C129.17 240.46 113.03 238.21 104.88 230.33L95.99 219.55C93.66 217.3 90.72 215.37 87.21 216.7L73.75 220.38C62.65 221.95 49.57 213.41 47.48 202.39L45.92 186.44C45.29 183.12 43.1 180.31 40.04 178.88L30.6 175.64C16.41 169.02 11.66 153.01 19.81 139.64L25.13 132.29C27.26 128.78 27.16 124.35 24.87 120.95L20.9 115.34C9.67 99.34 17.43 81.47 34.07 76.11L37.74 74.93C41.8 73.63 45.71 70.26 46.04 66.02L46.86 55.72C48.19 39 63.44 29.41 79.49 34.29L84.68 35.87C89.68 37.82 93.61 36.16 96.34 33.18L101.95 26.02Z" fill="url(#paint_radial_5_1738_0)" fill-opacity="1.000000" fill-rule="nonzero"/>
			<path id="path" d="M101.95 26.02C113.92 12.55 130.18 14.69 140.59 26.02L146.94 33.37C149.13 35.76 152.31 37 155.55 36.72L166.83 33.37C182.21 30.07 196.19 41.54 196.19 59.37L196.19 66.08C196.52 69.74 199.72 72.23 203.03 73.84L213.22 78.1C227.97 85.31 231.65 102.4 220.91 116.74L217.86 120.77C215.12 124.47 215.68 129.33 218.41 133.03L221.46 137.31C232.57 150.98 226.3 169.74 210.61 176.29L201.84 179.96C198.53 181.34 197.24 183.71 196.62 187.23L196.01 198.71C193.87 214.46 179.89 221.57 168.66 219.98L155.3 216.41C152.09 215.95 148.1 217.02 145.96 220.38L141.14 226.97C129.17 240.46 113.03 238.21 104.88 230.33L95.99 219.55C93.66 217.3 90.72 215.37 87.21 216.7L73.75 220.38C62.65 221.95 49.57 213.41 47.48 202.39L45.92 186.44C45.29 183.12 43.1 180.31 40.04 178.88L30.6 175.64C16.41 169.02 11.66 153.01 19.81 139.64L25.13 132.29C27.26 128.78 27.16 124.35 24.87 120.95L20.9 115.34C9.67 99.34 17.43 81.47 34.07 76.11L37.74 74.93C41.8 73.63 45.71 70.26 46.04 66.02L46.86 55.72C48.19 39 63.44 29.41 79.49 34.29L84.68 35.87C89.68 37.82 93.61 36.16 96.34 33.18L101.95 26.02Z" fill="url(#paint_radial_5_1739_0)" fill-opacity="1.000000" fill-rule="nonzero"/>
			<path id="path" d="M101.95 26.02C113.92 12.55 130.18 14.69 140.59 26.02L146.94 33.37C149.13 35.76 152.31 37 155.55 36.72L166.83 33.37C182.21 30.07 196.19 41.54 196.19 59.37L196.19 66.08C196.52 69.74 199.72 72.23 203.03 73.84L213.22 78.1C227.97 85.31 231.65 102.4 220.91 116.74L217.86 120.77C215.12 124.47 215.68 129.33 218.41 133.03L221.46 137.31C232.57 150.98 226.3 169.74 210.61 176.29L201.84 179.96C198.53 181.34 197.24 183.71 196.62 187.23L196.01 198.71C193.87 214.46 179.89 221.57 168.66 219.98L155.3 216.41C152.09 215.95 148.1 217.02 145.96 220.38L141.14 226.97C129.17 240.46 113.03 238.21 104.88 230.33L95.99 219.55C93.66 217.3 90.72 215.37 87.21 216.7L73.75 220.38C62.65 221.95 49.57 213.41 47.48 202.39L45.92 186.44C45.29 183.12 43.1 180.31 40.04 178.88L30.6 175.64C16.41 169.02 11.66 153.01 19.81 139.64L25.13 132.29C27.26 128.78 27.16 124.35 24.87 120.95L20.9 115.34C9.67 99.34 17.43 81.47 34.07 76.11L37.74 74.93C41.8 73.63 45.71 70.26 46.04 66.02L46.86 55.72C48.19 39 63.44 29.41 79.49 34.29L84.68 35.87C89.68 37.82 93.61 36.16 96.34 33.18L101.95 26.02Z" fill="url(#paint_radial_5_1740_0)" fill-opacity="1.000000" fill-rule="nonzero"/>
			<path id="path" d="M101.95 26.02C113.92 12.55 130.18 14.69 140.59 26.02L146.94 33.37C149.13 35.76 152.31 37 155.55 36.72L166.83 33.37C182.21 30.07 196.19 41.54 196.19 59.37L196.19 66.08C196.52 69.74 199.72 72.23 203.03 73.84L213.22 78.1C227.97 85.31 231.65 102.4 220.91 116.74L217.86 120.77C215.12 124.47 215.68 129.33 218.41 133.03L221.46 137.31C232.57 150.98 226.3 169.74 210.61 176.29L201.84 179.96C198.53 181.34 197.24 183.71 196.62 187.23L196.01 198.71C193.87 214.46 179.89 221.57 168.66 219.98L155.3 216.41C152.09 215.95 148.1 217.02 145.96 220.38L141.14 226.97C129.17 240.46 113.03 238.21 104.88 230.33L95.99 219.55C93.66 217.3 90.72 215.37 87.21 216.7L73.75 220.38C62.65 221.95 49.57 213.41 47.48 202.39L45.92 186.44C45.29 183.12 43.1 180.31 40.04 178.88L30.6 175.64C16.41 169.02 11.66 153.01 19.81 139.64L25.13 132.29C27.26 128.78 27.16 124.35 24.87 120.95L20.9 115.34C9.67 99.34 17.43 81.47 34.07 76.11L37.74 74.93C41.8 73.63 45.71 70.26 46.04 66.02L46.86 55.72C48.19 39 63.44 29.41 79.49 34.29L84.68 35.87C89.68 37.82 93.61 36.16 96.34 33.18L101.95 26.02Z" fill="url(#paint_radial_5_1741_0)" fill-opacity="1.000000" fill-rule="nonzero"/>
			<path id="path" d="M101.95 26.02C113.92 12.55 130.18 14.69 140.59 26.02L146.94 33.37C149.13 35.76 152.31 37 155.55 36.72L166.83 33.37C182.21 30.07 196.19 41.54 196.19 59.37L196.19 66.08C196.52 69.74 199.72 72.23 203.03 73.84L213.22 78.1C227.97 85.31 231.65 102.4 220.91 116.74L217.86 120.77C215.12 124.47 215.68 129.33 218.41 133.03L221.46 137.31C232.57 150.98 226.3 169.74 210.61 176.29L201.84 179.96C198.53 181.34 197.24 183.71 196.62 187.23L196.01 198.71C193.87 214.46 179.89 221.57 168.66 219.98L155.3 216.41C152.09 215.95 148.1 217.02 145.96 220.38L141.14 226.97C129.17 240.46 113.03 238.21 104.88 230.33L95.99 219.55C93.66 217.3 90.72 215.37 87.21 216.7L73.75 220.38C62.65 221.95 49.57 213.41 47.48 202.39L45.92 186.44C45.29 183.12 43.1 180.31 40.04 178.88L30.6 175.64C16.41 169.02 11.66 153.01 19.81 139.64L25.13 132.29C27.26 128.78 27.16 124.35 24.87 120.95L20.9 115.34C9.67 99.34 17.43 81.47 34.07 76.11L37.74 74.93C41.8 73.63 45.71 70.26 46.04 66.02L46.86 55.72C48.19 39 63.44 29.41 79.49 34.29L84.68 35.87C89.68 37.82 93.61 36.16 96.34 33.18L101.95 26.02Z" fill="url(#paint_radial_5_1742_0)" fill-opacity="1.000000" fill-rule="nonzero"/>
			<path id="path" d="M101.95 26.02C113.92 12.55 130.18 14.69 140.59 26.02L146.94 33.37C149.13 35.76 152.31 37 155.55 36.72L166.83 33.37C182.21 30.07 196.19 41.54 196.19 59.37L196.19 66.08C196.52 69.74 199.72 72.23 203.03 73.84L213.22 78.1C227.97 85.31 231.65 102.4 220.91 116.74L217.86 120.77C215.12 124.47 215.68 129.33 218.41 133.03L221.46 137.31C232.57 150.98 226.3 169.74 210.61 176.29L201.84 179.96C198.53 181.34 197.24 183.71 196.62 187.23L196.01 198.71C193.87 214.46 179.89 221.57 168.66 219.98L155.3 216.41C152.09 215.95 148.1 217.02 145.96 220.38L141.14 226.97C129.17 240.46 113.03 238.21 104.88 230.33L95.99 219.55C93.66 217.3 90.72 215.37 87.21 216.7L73.75 220.38C62.65 221.95 49.57 213.41 47.48 202.39L45.92 186.44C45.29 183.12 43.1 180.31 40.04 178.88L30.6 175.64C16.41 169.02 11.66 153.01 19.81 139.64L25.13 132.29C27.26 128.78 27.16 124.35 24.87 120.95L20.9 115.34C9.67 99.34 17.43 81.47 34.07 76.11L37.74 74.93C41.8 73.63 45.71 70.26 46.04 66.02L46.86 55.72C48.19 39 63.44 29.41 79.49 34.29L84.68 35.87C89.68 37.82 93.61 36.16 96.34 33.18L101.95 26.02Z" fill="url(#paint_radial_5_1743_0)" fill-opacity="1.000000" fill-rule="nonzero"/>
			<path id="path" d="M101.95 26.02C113.92 12.55 130.18 14.69 140.59 26.02L146.94 33.37C149.13 35.76 152.31 37 155.55 36.72L166.83 33.37C182.21 30.07 196.19 41.54 196.19 59.37L196.19 66.08C196.52 69.74 199.72 72.23 203.03 73.84L213.22 78.1C227.97 85.31 231.65 102.4 220.91 116.74L217.86 120.77C215.12 124.47 215.68 129.33 218.41 133.03L221.46 137.31C232.57 150.98 226.3 169.74 210.61 176.29L201.84 179.96C198.53 181.34 197.24 183.71 196.62 187.23L196.01 198.71C193.87 214.46 179.89 221.57 168.66 219.98L155.3 216.41C152.09 215.95 148.1 217.02 145.96 220.38L141.14 226.97C129.17 240.46 113.03 238.21 104.88 230.33L95.99 219.55C93.66 217.3 90.72 215.37 87.21 216.7L73.75 220.38C62.65 221.95 49.57 213.41 47.48 202.39L45.92 186.44C45.29 183.12 43.1 180.31 40.04 178.88L30.6 175.64C16.41 169.02 11.66 153.01 19.81 139.64L25.13 132.29C27.26 128.78 27.16 124.35 24.87 120.95L20.9 115.34C9.67 99.34 17.43 81.47 34.07 76.11L37.74 74.93C41.8 73.63 45.71 70.26 46.04 66.02L46.86 55.72C48.19 39 63.44 29.41 79.49 34.29L84.68 35.87C89.68 37.82 93.61 36.16 96.34 33.18L101.95 26.02Z" fill="url(#paint_radial_5_1744_0)" fill-opacity="1.000000" fill-rule="nonzero"/>
			<path id="path" d="M101.95 26.02C113.92 12.55 130.18 14.69 140.59 26.02L146.94 33.37C149.13 35.76 152.31 37 155.55 36.72L166.83 33.37C182.21 30.07 196.19 41.54 196.19 59.37L196.19 66.08C196.52 69.74 199.72 72.23 203.03 73.84L213.22 78.1C227.97 85.31 231.65 102.4 220.91 116.74L217.86 120.77C215.12 124.47 215.68 129.33 218.41 133.03L221.46 137.31C232.57 150.98 226.3 169.74 210.61 176.29L201.84 179.96C198.53 181.34 197.24 183.71 196.62 187.23L196.01 198.71C193.87 214.46 179.89 221.57 168.66 219.98L155.3 216.41C152.09 215.95 148.1 217.02 145.96 220.38L141.14 226.97C129.17 240.46 113.03 238.21 104.88 230.33L95.99 219.55C93.66 217.3 90.72 215.37 87.21 216.7L73.75 220.38C62.65 221.95 49.57 213.41 47.48 202.39L45.92 186.44C45.29 183.12 43.1 180.31 40.04 178.88L30.6 175.64C16.41 169.02 11.66 153.01 19.81 139.64L25.13 132.29C27.26 128.78 27.16 124.35 24.87 120.95L20.9 115.34C9.67 99.34 17.43 81.47 34.07 76.11L37.74 74.93C41.8 73.63 45.71 70.26 46.04 66.02L46.86 55.72C48.19 39 63.44 29.41 79.49 34.29L84.68 35.87C89.68 37.82 93.61 36.16 96.34 33.18L101.95 26.02Z" fill="url(#paint_radial_5_1745_0)" fill-opacity="1.000000" fill-rule="nonzero"/>
		</g>
		<g filter="url(#filter_5_1746_dd)">
			<path id="path" d="M121.36 210.42C167.71 210.42 205.29 172.84 205.29 126.49C205.29 80.13 167.71 42.56 121.36 42.56C75 42.56 37.43 80.13 37.43 126.49C37.43 172.84 75 210.42 121.36 210.42Z" fill="url(#paint_radial_5_1747_0)" fill-opacity="1.000000" fill-rule="nonzero"/>
		</g>
	</g>
</svg>
